#!OML:ASF Y:\EmotionMaleHayes\Project 1\Capture day 1\Session 1\Male1.ASF
:FULLY-SPECIFIED
:DEGREES
2069
root -13.78 16.3104 18.9461 1021.92 -80.7347 55.1439
lowerback 5.34731 -1.25521 -10.5078
upperback 2.95665 -2.23316 -0.708121
thorax 0.461582 -1.28484 5.25355
lowerneck -21.331 -1.45966 -2.6287
upperneck 27.7371 -2.96827 4.4549
head 12.9405 -1.11155 1.62887
rclavicle 3.1731e-014 1.96797e-014
rhumerus -45.9736 -6.72482 -79.4387
rradius 26.5855
rwrist 13.7517
rhand -5.24574 -30.4352
rfingers 7.12502
rthumb 20.5573 -59.3667
lclavicle 3.1731e-014 1.96797e-014
lhumerus -23.7024 -13.6794 91.3999
lradius 42.2332
lwrist 1.10916
lhand -21.9694 -28.8743
lfingers 7.12502
lthumb 4.43832 1.05915
rfemur -19.8602 -1.46121 15.7732
rtibia 22.8015
rfoot -9.295 -9.85718
rtoes 24.7598
lfemur 21.2896 2.38758 -28.9117
ltibia 28.4436
lfoot -6.39797 -12.0355
ltoes -5.37231
2070
root -13.9813 16.3155 18.9451 1021.92 -81.2149 54.5352
lowerback 5.47017 -1.18266 -10.0817
upperback 3.1686 -2.12085 -0.53082
thorax 0.584452 -1.23984 5.19713
lowerneck -21.2541 -1.40225 -2.59015
upperneck 27.9806 -2.86793 4.27928
head 13.0156 -1.09161 1.57385
rclavicle 1.56543e-014 1.13307e-014
rhumerus -44.9168 -6.68487 -79.5438
rradius 26.0672
rwrist 13.4496
rhand -5.80637 -30.1181
rfingers 7.12502
rthumb 20.0185 -59.1069
lclavicle 1.56543e-014 1.13307e-014
lhumerus -24.2134 -12.8341 91.6008
lradius 40.5801
lwrist 0.0621924
lhand -21.5952 -28.5378
lfingers 7.12502
lthumb 4.79969 1.38788
rfemur -18.4173 -0.365881 16.4942
rtibia 22.756
rfoot -9.9397 -10.0095
rtoes 25.9029
lfemur 21.1341 2.81175 -27.6662
ltibia 30.6717
lfoot -3.35397 -12.113
ltoes -2.95479
2071
root -14.1629 16.3244 18.927 1026.05 -82.7881 49.8915
lowerback 5.73471 -1.03258 -8.58416
upperback 3.29605 -1.86573 -0.00365696
thorax 0.486394 -1.09377 4.90637
lowerneck -21.0902 -1.41113 -2.81513
upperneck 27.9411 -2.94175 4.69762
head 12.9806 -1.09512 1.76186
rclavicle 2.28602e-015 -3.37934e-015
rhumerus -45.1934 -6.187 -79.9345
rradius 28.6541
rwrist 12.4156
rhand -5.44461 -31.0443
rfingers 7.12502
rthumb 20.3662 -59.9963
lclavicle 2.28602e-015 -3.37934e-015
lhumerus -24.6319 -12.06 91.7994
lradius 38.7594
lwrist -1.16674
lhand -21.2511 -28.1957
lfingers 7.12502
lthumb 5.13191 1.72214
rfemur -17.2636 1.37794 18.8741
rtibia 22.8907
rfoot -10.6566 -10.7021
rtoes 26.6023
lfemur 20.6924 3.30227 -24.8185
ltibia 33.0834
lfoot -0.532927 -11.8039
ltoes -3.27432
2072
root -14.3358 16.3376 18.9042 1033.17 -84.3115 42.2082
lowerback 6.15378 -0.897529 -7.02988
upperback 3.42361 -1.63818 0.495316
thorax 0.312156 -0.959772 4.5525
lowerneck -21.1818 -1.43435 -2.7722
upperneck 28.224 -3.0253 4.72468
head 13.1202 -1.12484 1.75407
rclavicle -4.42296e-015 -1.94809e-014
rhumerus -44.2434 -6.42201 -79.9837
rradius 28.7055
rwrist 11.3033
rhand -5.12567 -30.906
rfingers 7.12502
rthumb 20.6727 -59.8251
lclavicle -4.42296e-015 -1.94809e-014
lhumerus -24.973 -11.3635 91.8521
lradius 36.8254
lwrist -2.46439
lhand -21.2496 -27.9851
lfingers 7.12502
lthumb 5.13331 1.93274
rfemur -16.0669 3.04639 21.3361
rtibia 22.9691
rfoot -11.3112 -11.3939
rtoes 28.0941
lfemur 20.1598 3.70621 -21.9014
ltibia 35.5867
lfoot 2.4894 -11.7007
ltoes -1.26675
2073
root -14.5058 16.353 18.8833 1043.9 -85.5413 30.8438
lowerback 6.6554 -0.81633 -5.64266
upperback 3.5729 -1.48841 0.943385
thorax 0.137126 -0.870451 4.23958
lowerneck -21.4632 -1.35655 -2.33293
upperneck 28.7769 -2.95785 4.24673
head 13.3896 -1.11234 1.50916
rclavicle 1.88845e-015 1.98785e-015
rhumerus -43.4879 -6.10202 -80.3275
rradius 28.9878
rwrist 10.6371
rhand -5.47195 -30.1402
rfingers 7.12502
rthumb 20.3399 -59.0951
lclavicle 1.88845e-015 1.98785e-015
lhumerus -25.2408 -10.6753 91.7923
lradius 34.8794
lwrist -3.51338
lhand -20.9771 -27.5502
lfingers 7.12502
lthumb 5.3965 2.36111
rfemur -14.6842 4.27661 23.5944
rtibia 22.8642
rfoot -11.7657 -11.8679
rtoes 28.8761
lfemur 19.6418 3.97258 -19.2869
ltibia 38.1402
lfoot 4.59195 -11.7487
ltoes -1.49908
